<?xml version="1.0" encoding="UTF-8"?>
<svg version="1.1" xmlns="http://www.w3.org/2000/svg" width="1330" height="563">
<path d="M0 0 C0.92746536 -0.00014603 1.85493073 -0.00029205 2.8105011 -0.0004425 C5.86213558 0.00025162 8.91370827 0.00802056 11.96533203 0.01586914 C14.08667976 0.0177351 16.20802791 0.01915816 18.32937622 0.02015686 C23.90243731 0.02396804 29.47547219 0.03378637 35.04852295 0.04486084 C40.73953904 0.05510505 46.43055937 0.05966093 52.12158203 0.06469727 C63.28044955 0.07540991 74.43929075 0.09299537 85.59814453 0.11352539 C85.59814453 11.33352539 85.59814453 22.55352539 85.59814453 34.11352539 C83.00044189 34.12287109 80.40273926 34.1322168 77.72631836 34.1418457 C69.10086296 34.17575746 60.47564324 34.23138456 51.85037708 34.29742813 C46.62574399 34.33677693 41.40127628 34.36902687 36.17651367 34.38452148 C31.12531129 34.39977144 26.07456395 34.43436336 21.02356529 34.48183441 C19.10570948 34.49656272 17.18778866 34.50456144 15.26987648 34.50540924 C-5.11583888 34.4360451 -5.11583888 34.4360451 -22.40185547 44.11352539 C-30.25464814 57.91951646 -30.25464814 57.91951646 -30.40185547 83.11352539 C7.54814453 83.11352539 45.49814453 83.11352539 84.59814453 83.11352539 C84.59814453 93.67352539 84.59814453 104.23352539 84.59814453 115.11352539 C46.64814453 115.11352539 8.69814453 115.11352539 -30.40185547 115.11352539 C-30.40185547 139.86352539 -30.40185547 164.61352539 -30.40185547 190.11352539 C-41.62185547 190.11352539 -52.84185547 190.11352539 -64.40185547 190.11352539 C-64.4698347 173.19645843 -64.52498885 156.27950985 -64.55729198 139.36234379 C-64.57269612 131.50567259 -64.59366055 123.64909289 -64.62817383 115.79248047 C-64.65827559 108.93677958 -64.67747723 102.08114503 -64.68412095 95.22537988 C-64.68799843 91.60243564 -64.69697242 87.97968103 -64.71904564 84.35679817 C-64.8625467 59.82451947 -64.92137278 36.18189672 -47.44482422 16.96118164 C-38.71287401 8.52083645 -27.20746367 3.51153956 -15.40185547 1.11352539 C-14.55420624 0.94039322 -13.70655701 0.76726105 -12.83322144 0.58888245 C-8.52989911 -0.00726925 -4.33851084 -0.01799616 0 0 Z " fill="#000000" transform="translate(85.40185546875,45.886474609375)"/>
<path d="M0 0 C0.93721893 -0.00014603 1.87443787 -0.00029205 2.84005737 -0.0004425 C5.92415721 0.00025169 9.00819593 0.00802095 12.09228516 0.01586914 C14.23605313 0.01773507 16.37982153 0.01915815 18.52359009 0.02015686 C24.15583481 0.02396823 29.78805359 0.03378673 35.42028809 0.04486084 C41.17162729 0.05510465 46.9229707 0.05966084 52.67431641 0.06469727 C63.95167336 0.07541024 75.22900429 0.09299586 86.50634766 0.11352539 C86.50634766 11.33352539 86.50634766 22.55352539 86.50634766 34.11352539 C83.8125293 34.12810791 81.11871094 34.14269043 78.34326172 34.15771484 C69.40649919 34.20822917 60.46990783 34.27485335 51.53331375 34.3492403 C46.11922975 34.39381816 40.70521882 34.43310162 35.29101562 34.45996094 C30.0583363 34.48611994 24.8259401 34.52661023 19.59343719 34.57671165 C17.60497328 34.59329559 15.61646048 34.60486229 13.62793732 34.6111393 C-1.88374583 34.66502193 -17.25846381 35.11662054 -29.56005859 45.92993164 C-44.92880865 62.36088472 -44.0674724 85.74257334 -43.62988281 106.72241211 C-43.08143008 120.37475713 -39.3178704 134.19259652 -29.66162109 144.21118164 C-21.49407534 151.37801909 -10.1837374 155.16804738 0.61279297 155.29052734 C1.60442444 155.30336258 2.59605591 155.31619781 3.61773682 155.329422 C5.21002106 155.3405024 5.21002106 155.3405024 6.83447266 155.35180664 C8.48984039 155.36391426 8.48984039 155.36391426 10.1786499 155.37626648 C12.51198773 155.39007912 14.84534552 155.40081385 17.17871094 155.40869141 C19.55670114 155.42021299 21.93466546 155.4406674 24.3125 155.47021484 C27.75750213 155.51300842 31.20173731 155.52907702 34.64697266 155.53930664 C35.70039856 155.55681473 36.75382446 155.57432281 37.83917236 155.59236145 C44.69438197 155.57239075 49.45783507 154.25349889 55.50634766 151.11352539 C56.49634766 150.78352539 57.48634766 150.45352539 58.50634766 150.11352539 C59.60803749 148.41583305 59.60803749 148.41583305 60.50634766 146.11352539 C61.02197266 145.08227539 61.53759766 144.05102539 62.06884766 142.98852539 C65.30805492 135.23756515 65.04023319 127.03020561 62.50634766 119.11352539 C60.00356634 114.28673286 57.33314019 111.61630671 52.50634766 109.11352539 C45.76836733 107.25424833 39.07932212 106.78984691 32.12353516 106.69946289 C31.1832547 106.68009674 30.24297424 106.66073059 29.27420044 106.64077759 C26.31000461 106.58163128 23.34576855 106.53485955 20.38134766 106.48852539 C18.35529029 106.45028566 16.32924815 106.41123058 14.30322266 106.37133789 C9.37101617 106.27446968 4.43894558 106.19438765 -0.49365234 106.11352539 C-0.49365234 96.54352539 -0.49365234 86.97352539 -0.49365234 77.11352539 C6.98550264 77.02927959 14.46290573 76.94918762 21.94212341 76.90652466 C25.42614366 76.88553734 28.90976477 76.85756756 32.39355469 76.81176758 C36.40514648 76.75936815 40.41632588 76.74046709 44.42822266 76.72290039 C45.65684021 76.70225525 46.88545776 76.68161011 48.15130615 76.66033936 C61.04515067 76.65703894 73.0164724 80.37395398 82.72900391 89.11352539 C94.16559587 101.08453754 97.0367987 116.951087 96.85327148 133.00732422 C96.37783705 148.75668221 92.20893819 164.27779624 81.38134766 176.17602539 C68.94828576 187.36792104 53.08867084 190.58706264 36.84228516 190.54711914 C34.93414536 190.55498192 34.93414536 190.55498192 32.98745728 190.56300354 C30.30967654 190.56939137 27.63275914 190.56959621 24.95507812 190.55957031 C22.2496843 190.5504113 19.54515585 190.55723501 16.83984375 190.58007812 C-9.99284026 190.80565318 -34.75805407 188.63537462 -55.29052734 169.50805664 C-63.48989219 160.89872356 -68.88424486 151.60454074 -72.74365234 140.42602539 C-73.09508301 139.42236938 -73.09508301 139.42236938 -73.45361328 138.3984375 C-77.76434192 125.04105419 -78.9948896 111.47857751 -78.88476562 97.52954102 C-78.8686572 95.11425358 -78.88474093 92.70063841 -78.90380859 90.28540039 C-78.9386685 64.84218671 -72.79277697 38.84019966 -54.49365234 20.11352539 C-38.99784985 6.52787029 -20.50551706 -0.08414913 0 0 Z " fill="#000000" transform="translate(281.49365234375,45.886474609375)"/>
<path d="M0 0 C3.03385888 2.16504017 5.01940542 4.58302925 6.44140625 8.01953125 C7.35313286 15.99713908 6.3768209 21.13260902 1.87890625 27.95703125 C-2.61959915 32.58406537 -6.48807656 33.41664798 -12.80859375 33.58203125 C-17.69220838 33.45424611 -21.280403 33.20235258 -25.30859375 30.20703125 C-29.39205151 25.89671472 -31.10413536 22.2856916 -31.68359375 16.39453125 C-31.51193787 10.32935693 -28.71307203 5.90718917 -24.93359375 1.33203125 C-17.73717461 -4.49364138 -7.89083527 -4.51132602 0 0 Z " fill="#000000" transform="translate(254.30859375,280.79296875)"/>
<path d="M0 0 C1.54722952 0.00138269 1.54722952 0.00138269 3.12571621 0.00279331 C4.30507244 0.00141865 5.48442867 0.00004398 6.69952297 -0.00137234 C8.00503109 0.00222294 9.31053921 0.00581821 10.65560818 0.00952244 C12.03504846 0.00980431 13.4144889 0.00964658 14.7939291 0.00907993 C18.54996147 0.00879195 22.30596218 0.01468878 26.06198716 0.02165389 C29.98312073 0.02788732 33.90425496 0.02849122 37.82539272 0.0296793 C45.25563639 0.03279265 52.68586542 0.04100608 60.11610264 0.05102879 C68.57303667 0.06218982 77.02997138 0.06770035 85.48691094 0.07272422 C102.88812254 0.08318869 120.28931987 0.1007882 137.69052029 0.12304783 C137.42842224 2.20749814 137.15523537 4.29055407 136.87802029 6.37304783 C136.65178982 8.1132822 136.65178982 8.1132822 136.42098904 9.88867283 C135.47707545 15.36034303 134.03719697 20.73634109 132.69052029 26.12304783 C77.74552029 26.61804783 77.74552029 26.61804783 21.69052029 27.12304783 C17.40052029 48.57304783 13.11052029 70.02304783 8.69052029 92.12304783 C57.20052029 92.61804783 57.20052029 92.61804783 106.69052029 93.12304783 C106.06546398 99.3736109 105.42844064 105.10116927 104.19052029 111.18554783 C103.93270779 112.47589939 103.67489529 113.76625095 103.40927029 115.09570408 C102.69052029 118.12304783 102.69052029 118.12304783 101.69052029 119.12304783 C98.61597268 119.21837111 95.56392871 119.24856162 92.48910427 119.23657322 C91.04048 119.23679226 91.04048 119.23679226 89.5625906 119.23701572 C86.3539093 119.23631617 83.14528526 119.2285218 79.93661404 119.22070408 C77.71843911 119.21884005 75.50026377 119.21741608 73.28208828 119.21641636 C67.43111957 119.21258998 61.58017551 119.20275868 55.72921658 119.19171238 C49.76384725 119.18150082 43.79847395 119.17691929 37.83309841 119.17187595 C26.11889485 119.16113652 14.40470961 119.14405867 2.69052029 119.12304783 C2.5268446 120.25736492 2.5268446 120.25736492 2.35986233 121.41459751 C1.0437669 130.27300302 -0.60014983 139.04927192 -2.34854221 147.83007908 C-2.63738524 149.2911882 -2.9259854 150.75234535 -3.21435642 152.21354771 C-3.9648691 156.0131047 -4.7186235 159.81201114 -5.47311497 163.61077976 C-6.38259554 168.19355601 -7.2879415 172.77715073 -8.1940012 177.36060429 C-9.56270516 184.28204208 -10.93657275 191.20243654 -12.30947971 198.12304783 C-22.20947971 198.12304783 -32.10947971 198.12304783 -42.30947971 198.12304783 C-38.41184709 176.73348487 -34.23245809 155.40962904 -29.96985245 134.09039736 C-29.41275482 131.3034701 -28.85620769 128.51643345 -28.29984379 125.72935963 C-26.35542909 115.98894852 -24.40909399 106.24892357 -22.4608469 96.5092783 C-20.6480295 87.44640388 -18.83955471 78.38266994 -17.03299785 69.3185457 C-15.47384361 61.4966967 -13.91175315 53.67543792 -12.34733701 45.85463965 C-11.41611808 41.19905504 -10.48609771 36.54323884 -9.55904484 31.8868227 C-8.69233568 27.53402666 -7.82199451 23.18197304 -6.94876957 18.83047962 C-6.62855105 17.23148929 -6.30965941 15.6322326 -5.99215794 14.03270054 C-5.56058894 11.85956615 -5.12435266 9.6874217 -4.68686008 7.51547337 C-4.32189238 5.68900052 -4.32189238 5.68900052 -3.94955158 3.82562923 C-3.08239558 0.16422837 -3.08239558 0.16422837 0 0 Z " fill="#000000" transform="translate(56.30947971343994,293.8769521713257)"/>
<path d="M0 0 C1.11246094 -0.020625 2.22492188 -0.04125 3.37109375 -0.0625 C17.62300608 -0.12886513 31.44254217 3.4520554 42.1875 13.25 C53.51557206 25.46372133 55.98207167 39.99701427 55.49887085 56.09674072 C55.14569263 62.23607275 53.80191668 68.24231174 52.5625 74.25 C52.25690249 75.78715757 51.95275613 77.32460419 51.64990234 78.86230469 C50.96688328 82.31923331 50.27501787 85.77425988 49.57861328 89.22851562 C48.18401187 96.17184408 46.84151509 103.12513103 45.49609375 110.078125 C44.74719523 113.93697435 43.99754732 117.79567707 43.24746704 121.65429688 C42.74879876 124.21993533 42.25073237 126.78569085 41.75326538 129.3515625 C41.0504607 132.96954796 40.3423978 136.58646413 39.6328125 140.203125 C39.31291603 141.85674042 39.31291603 141.85674042 38.98655701 143.54376221 C38.68987877 145.04818878 38.68987877 145.04818878 38.38720703 146.58300781 C38.21512726 147.46402161 38.04304749 148.3450354 37.86575317 149.25274658 C37.375 151.25 37.375 151.25 36.375 152.25 C34.30237924 152.33767112 32.22679706 152.35695873 30.15234375 152.34765625 C28.89228516 152.34443359 27.63222656 152.34121094 26.33398438 152.33789062 C24.99348891 152.32953403 23.65299412 152.32106907 22.3125 152.3125 C20.96810058 152.3074866 19.6236994 152.30292342 18.27929688 152.29882812 C14.97781844 152.28699487 11.67643833 152.26967279 8.375 152.25 C9.70134676 142.84996188 11.45034485 133.5839272 13.36439896 124.28966331 C14.03842928 121.00823131 14.70089004 117.72449398 15.36414146 114.44086933 C16.59178013 108.36310923 17.82338675 102.28625555 19.07617188 96.21362305 C19.95440024 91.95430984 20.8170839 87.69208904 21.67014694 83.42766762 C21.99387251 81.82370754 22.32302888 80.22083185 22.65819168 78.61922264 C27.12445243 57.44836832 27.12445243 57.44836832 21.375 37.25 C17.24565479 31.78469016 10.65928007 28.4257887 4.09765625 26.625 C-12.79258911 24.29865344 -28.29729433 27.26500883 -42.6875 36.5859375 C-56.10476424 46.94837818 -60.20413107 65.20282133 -63.3125 80.9375 C-63.64210795 82.55833388 -63.97286905 84.17893362 -64.3046875 85.79931641 C-65.02539117 89.32925208 -65.73864978 92.86058684 -66.44677734 96.39306641 C-67.7348439 102.81119823 -69.04846701 109.22402137 -70.36328125 115.63671875 C-72.79524675 127.50551361 -75.21286564 139.37715835 -77.625 151.25 C-86.865 151.25 -96.105 151.25 -105.625 151.25 C-104.49998556 138.87484116 -104.49998556 138.87484116 -103.4864502 133.78430176 C-103.25933853 132.62919098 -103.03222687 131.4740802 -102.79823303 130.28396606 C-102.55092941 129.05652679 -102.30362579 127.82908752 -102.04882812 126.56445312 C-101.78381381 125.22790937 -101.51929678 123.89126694 -101.25523376 122.55453491 C-100.54346727 118.95901684 -99.82469082 115.36493402 -99.10445213 111.77110481 C-98.34964463 107.99901383 -97.60105935 104.22568792 -96.85168457 100.45251465 C-95.59455778 94.1274082 -94.33316562 87.80316493 -93.06884766 81.47949219 C-91.44586219 73.36177046 -89.83003175 65.24264161 -88.21640778 57.1230545 C-86.82692805 50.13165526 -85.43414711 43.14091431 -84.0408535 36.15027428 C-83.59372429 33.90612095 -83.14705723 31.661876 -82.70045471 29.4176178 C-81.99976252 25.89759299 -81.29701232 22.37798501 -80.59265327 18.85869217 C-80.21108597 16.94998374 -79.83140129 15.04089925 -79.45176697 13.13180542 C-79.2246553 11.99925323 -78.99754364 10.86670105 -78.7635498 9.6998291 C-78.4682198 8.22104153 -78.4682198 8.22104153 -78.16692352 6.71237946 C-77.625 4.25 -77.625 4.25 -76.625 1.25 C-67.715 1.25 -58.805 1.25 -49.625 1.25 C-50.22114768 6.61532913 -50.83103151 11.91906872 -51.625 17.25 C-51.12613281 16.81429688 -50.62726563 16.37859375 -50.11328125 15.9296875 C-35.55593274 3.85519017 -18.46673305 0.08384442 0 0 Z " fill="#000000" transform="translate(373.625,340.75)"/>
<path d="M0 0 C3.28819462 2.97992637 5.63738089 6.4042366 8.125 10.0625 C8.455 10.0625 8.785 10.0625 9.125 10.0625 C9.29890259 9.11612671 9.29890259 9.11612671 9.47631836 8.15063477 C10.00100481 5.30799319 10.53167024 2.4665005 11.0625 -0.375 C11.24490234 -1.36822266 11.42730469 -2.36144531 11.61523438 -3.38476562 C11.79248047 -4.32900391 11.96972656 -5.27324219 12.15234375 -6.24609375 C12.31468506 -7.12064209 12.47702637 -7.99519043 12.64428711 -8.89624023 C13.125 -10.9375 13.125 -10.9375 14.125 -11.9375 C16.19762076 -12.02517112 18.27320294 -12.04445873 20.34765625 -12.03515625 C21.60771484 -12.03193359 22.86777344 -12.02871094 24.16601562 -12.02539062 C25.50651109 -12.01703403 26.84700588 -12.00856907 28.1875 -12 C29.53189942 -11.9949866 30.8763006 -11.99042342 32.22070312 -11.98632812 C35.52218156 -11.97449487 38.82356167 -11.95717279 42.125 -11.9375 C40.80930058 -2.90602156 39.22044026 6.04126785 37.43530273 14.9909668 C37.1703946 16.32947838 36.90572278 17.66803676 36.64126587 19.00663757 C35.93112245 22.59731432 35.2175134 26.18729365 34.5030582 29.77711463 C33.90536418 32.78210079 33.30948021 35.78744469 32.71360356 38.79279166 C31.30933985 45.87529219 29.90232143 52.95724139 28.4934082 60.03881836 C27.04029379 67.34275665 25.59132977 74.64750944 24.14444965 81.95268506 C22.89897405 88.24039855 21.65124939 94.52766268 20.40163761 100.81455547 C19.65650904 104.56337886 18.91217435 108.31235519 18.16988945 112.06174278 C17.47399171 115.57618579 16.77528063 119.09005772 16.07435989 122.60350227 C15.69452443 124.51106108 15.31755568 126.41919 14.94065857 128.32733154 C14.71499207 129.45561874 14.48932556 130.58390594 14.25682068 131.74638367 C14.06123282 132.73056621 13.86564497 133.71474874 13.66413021 134.728755 C13.125 137.0625 13.125 137.0625 12.125 139.0625 C3.215 139.0625 -5.695 139.0625 -14.875 139.0625 C-12.875 127.0625 -12.875 127.0625 -11.875 123.0625 C-12.45765625 123.49820313 -13.0403125 123.93390625 -13.640625 124.3828125 C-33.1402759 138.54765325 -54.27041037 142.8761508 -78.06640625 139.5546875 C-94.73546128 136.37091629 -110.00289106 127.4429283 -119.60180664 113.35351562 C-130.65755582 96.52355996 -131.79656736 76.10328836 -128.62109375 56.65625 C-123.83708343 33.61284949 -112.49460452 13.46416666 -92.65673828 0.19580078 C-65.85736907 -16.8503313 -25.95385098 -20.84088676 0 0 Z M-84.875 29.0625 C-85.43832031 29.60390625 -86.00164062 30.1453125 -86.58203125 30.703125 C-98.29078272 42.93707112 -101.38269611 59.78662532 -101.29711914 76.04760742 C-101.11457145 83.01733813 -100.31094721 88.88853236 -96.875 95.0625 C-96.4625 95.85527344 -96.05 96.64804687 -95.625 97.46484375 C-90.53273192 106.15931283 -82.15783544 111.54775551 -72.60546875 114.40234375 C-59.72075083 116.68246661 -45.93837717 116.40836977 -33.875 111.0625 C-33.07320312 110.711875 -32.27140625 110.36125 -31.4453125 110 C-16.66755238 102.636687 -7.17859881 89.3000842 -1.875 74.0625 C0.06449537 67.41201222 0.46144731 61.02661499 0.4375 54.125 C0.45361328 53.20009766 0.46972656 52.27519531 0.48632812 51.32226562 C0.4942442 40.0260199 -2.69605771 30.57504716 -10.5390625 22.30859375 C-18.51715157 15.04088247 -28.21198996 11.90590192 -38.875 11.0625 C-39.52855469 11.00835937 -40.18210937 10.95421875 -40.85546875 10.8984375 C-58.26672592 10.17977398 -72.85546381 16.89191039 -84.875 29.0625 Z " fill="#000000" transform="translate(588.875,353.9375)"/>
<path d="M0 0 C1.11246094 -0.020625 2.22492188 -0.04125 3.37109375 -0.0625 C17.62300608 -0.12886513 31.44254217 3.4520554 42.1875 13.25 C53.51557206 25.46372133 55.98207167 39.99701427 55.49887085 56.09674072 C55.14569263 62.23607275 53.80191668 68.24231174 52.5625 74.25 C52.25690249 75.78715757 51.95275613 77.32460419 51.64990234 78.86230469 C50.96688328 82.31923331 50.27501787 85.77425988 49.57861328 89.22851562 C48.18401187 96.17184408 46.84151509 103.12513103 45.49609375 110.078125 C44.74719523 113.93697435 43.99754732 117.79567707 43.24746704 121.65429688 C42.74879876 124.21993533 42.25073237 126.78569085 41.75326538 129.3515625 C41.0504607 132.96954796 40.3423978 136.58646413 39.6328125 140.203125 C39.31291603 141.85674042 39.31291603 141.85674042 38.98655701 143.54376221 C38.68987877 145.04818878 38.68987877 145.04818878 38.38720703 146.58300781 C38.21512726 147.46402161 38.04304749 148.3450354 37.86575317 149.25274658 C37.375 151.25 37.375 151.25 36.375 152.25 C34.30237924 152.33767112 32.22679706 152.35695873 30.15234375 152.34765625 C28.89228516 152.34443359 27.63222656 152.34121094 26.33398438 152.33789062 C24.99348891 152.32953403 23.65299412 152.32106907 22.3125 152.3125 C20.96810058 152.3074866 19.6236994 152.30292342 18.27929688 152.29882812 C14.97781844 152.28699487 11.67643833 152.26967279 8.375 152.25 C9.70134676 142.84996188 11.45034485 133.5839272 13.36439896 124.28966331 C14.03842928 121.00823131 14.70089004 117.72449398 15.36414146 114.44086933 C16.59178013 108.36310923 17.82338675 102.28625555 19.07617188 96.21362305 C19.95440024 91.95430984 20.8170839 87.69208904 21.67014694 83.42766762 C21.99387251 81.82370754 22.32302888 80.22083185 22.65819168 78.61922264 C27.12445243 57.44836832 27.12445243 57.44836832 21.375 37.25 C17.24565479 31.78469016 10.65928007 28.4257887 4.09765625 26.625 C-12.79258911 24.29865344 -28.29729433 27.26500883 -42.6875 36.5859375 C-56.0816161 46.93050038 -60.20165653 65.16400601 -63.3125 80.875 C-63.64224469 82.49320222 -63.97300266 84.11119824 -64.3046875 85.72900391 C-65.22243122 90.22450783 -66.12328468 94.72324922 -67.02044678 99.22290039 C-67.66507159 102.45064518 -68.31376919 105.67755175 -68.96337891 108.90429688 C-71.87121851 123.34879793 -74.75572468 137.79778949 -77.625 152.25 C-87.195 152.25 -96.765 152.25 -106.625 152.25 C-101.2071947 123.19213792 -95.50596813 94.19228443 -89.75244141 65.19921875 C-88.48240998 58.79901878 -87.21568111 52.39816987 -85.9497776 45.99715233 C-84.96634677 41.02652849 -83.98110515 36.05626493 -82.99531174 31.08610916 C-82.52663404 28.72186626 -82.05855238 26.35750513 -81.59108353 23.99302292 C-80.94491377 20.7259319 -80.29627839 17.45934009 -79.64697266 14.19287109 C-79.455849 13.22385361 -79.26472534 12.25483612 -79.06781006 11.25645447 C-78.89144012 10.37183029 -78.71507019 9.48720612 -78.53335571 8.57577515 C-78.38113367 7.80804464 -78.22891163 7.04031414 -78.0720768 6.24931908 C-77.625 4.25 -77.625 4.25 -76.625 1.25 C-67.715 1.25 -58.805 1.25 -49.625 1.25 C-50.22114768 6.61532913 -50.83103151 11.91906872 -51.625 17.25 C-51.12613281 16.81429688 -50.62726562 16.37859375 -50.11328125 15.9296875 C-35.55593274 3.85519017 -18.46673305 0.08384442 0 0 Z " fill="#000000" transform="translate(757.625,340.75)"/>
<path d="M0 0 C6.35066544 5.45084364 10.86716604 11.41781024 14.9296875 18.7109375 C12.62625357 21.24895028 10.26840122 22.78233453 7.26171875 24.41015625 C5.92270508 25.14008789 5.92270508 25.14008789 4.55664062 25.88476562 C3.62787109 26.38427734 2.69910156 26.88378906 1.7421875 27.3984375 C0.80181641 27.90955078 -0.13855469 28.42066406 -1.10742188 28.94726562 C-3.42588577 30.20653281 -5.7468739 31.46087996 -8.0703125 32.7109375 C-10.66446925 30.17881493 -13.03022941 27.58045683 -15.3203125 24.7734375 C-23.15737029 15.82155408 -33.45697645 12.63263084 -45.0703125 11.7109375 C-45.72 11.65808594 -46.3696875 11.60523438 -47.0390625 11.55078125 C-61.52864867 10.92902662 -75.44669554 15.5860956 -86.3828125 25.0234375 C-94.00009469 32.33554012 -99.35105563 39.79291918 -103.0703125 49.7109375 C-103.39128906 50.566875 -103.71226562 51.4228125 -104.04296875 52.3046875 C-107.76093966 64.34053751 -108.52570646 81.05802123 -103.19140625 92.66796875 C-102.82144531 93.34214844 -102.45148437 94.01632812 -102.0703125 94.7109375 C-101.5134375 95.7628125 -100.9565625 96.8146875 -100.3828125 97.8984375 C-93.27811972 106.53928008 -85.25572404 112.04008764 -74.0703125 113.7109375 C-56.87201575 114.84452411 -42.21980735 113.50462295 -28.0703125 102.7109375 C-27.51730469 102.14503906 -26.96429687 101.57914062 -26.39453125 100.99609375 C-25.0703125 99.7109375 -25.0703125 99.7109375 -23.0703125 99.7109375 C-22.8021875 99.0921875 -22.5340625 98.4734375 -22.2578125 97.8359375 C-21.0703125 95.7109375 -21.0703125 95.7109375 -18.0703125 93.7109375 C-17.57104248 94.06397949 -17.07177246 94.41702148 -16.55737305 94.78076172 C-14.29114487 96.38290048 -12.02448355 97.98442537 -9.7578125 99.5859375 C-8.97212891 100.14152344 -8.18644531 100.69710937 -7.37695312 101.26953125 C-6.2409668 102.07197266 -6.2409668 102.07197266 -5.08203125 102.890625 C-4.03728638 103.62901611 -4.03728638 103.62901611 -2.97143555 104.38232422 C-1.35269791 105.51359046 0.28650406 106.61548188 1.9296875 107.7109375 C-4.31539713 121.18247719 -18.73161756 129.61543137 -32.0703125 134.7109375 C-41.62136592 138.0297095 -51.06122535 139.64554447 -61.0703125 140.7109375 C-62.3903125 144.0109375 -63.7103125 147.3109375 -65.0703125 150.7109375 C-63.059375 151.2678125 -63.059375 151.2678125 -61.0078125 151.8359375 C-55.42204381 153.72718202 -51.03580209 156.39548531 -47.97265625 161.5625 C-44.88646251 168.76840353 -45.23916629 176.25001492 -47.9765625 183.51171875 C-52.57256263 192.75296187 -60.28785084 196.7169852 -69.6953125 199.9609375 C-83.68038034 203.06873035 -98.23648599 202.65287093 -111.0703125 195.7109375 C-109.52486104 190.23160961 -106.91488038 185.59664569 -104.0703125 180.7109375 C-101.34478139 181.19191358 -98.88453261 181.78024669 -96.28515625 182.75 C-92.31491739 183.93672996 -88.7520499 184.07865326 -84.6328125 184.0859375 C-83.90771484 184.11042969 -83.18261719 184.13492188 -82.43554688 184.16015625 C-76.87328299 184.1901415 -73.64418621 182.88869906 -69.0703125 179.7109375 C-67.18422109 176.7246261 -67.05425944 175.11226407 -67.1953125 171.5859375 C-68.26200197 168.08110067 -68.91425156 167.49937203 -72.0703125 165.7109375 C-74.86291183 165.18662417 -77.50636882 164.79439144 -80.3203125 164.5234375 C-81.43792969 164.4006543 -81.43792969 164.4006543 -82.578125 164.27539062 C-84.40766606 164.07601756 -86.23886401 163.89195276 -88.0703125 163.7109375 C-87.47946846 160.19037833 -86.5547583 157.27732528 -85.00390625 154.06640625 C-84.60107422 153.22529297 -84.19824219 152.38417969 -83.78320312 151.51757812 C-83.36232422 150.65326172 -82.94144531 149.78894531 -82.5078125 148.8984375 C-82.08306641 148.01478516 -81.65832031 147.13113281 -81.22070312 146.22070312 C-80.17559826 144.04829413 -79.12534488 141.87853793 -78.0703125 139.7109375 C-79.62878906 139.34742188 -79.62878906 139.34742188 -81.21875 138.9765625 C-101.13467565 134.2379787 -116.86811145 126.49913374 -128.05566406 108.46923828 C-138.37514091 90.586449 -138.06177918 68.26625671 -133.10546875 48.76953125 C-127.36520555 27.92397421 -114.05296583 9.24509445 -95.1328125 -1.6015625 C-66.56110072 -17.29490141 -27.30318378 -20.35580877 0 0 Z " fill="#000000" transform="translate(979.0703125,354.2890625)"/>
<path d="M0 0 C3.28819462 2.97992637 5.63738089 6.4042366 8.125 10.0625 C8.455 10.0625 8.785 10.0625 9.125 10.0625 C9.29890259 9.11612671 9.29890259 9.11612671 9.47631836 8.15063477 C10.00100481 5.30799319 10.53167024 2.4665005 11.0625 -0.375 C11.24490234 -1.36822266 11.42730469 -2.36144531 11.61523438 -3.38476562 C11.79248047 -4.32900391 11.96972656 -5.27324219 12.15234375 -6.24609375 C12.31468506 -7.12064209 12.47702637 -7.99519043 12.64428711 -8.89624023 C13.125 -10.9375 13.125 -10.9375 14.125 -11.9375 C16.19762076 -12.02517112 18.27320294 -12.04445873 20.34765625 -12.03515625 C21.60771484 -12.03193359 22.86777344 -12.02871094 24.16601562 -12.02539062 C25.50651109 -12.01703403 26.84700588 -12.00856907 28.1875 -12 C29.53189942 -11.9949866 30.8763006 -11.99042342 32.22070312 -11.98632812 C35.52218156 -11.97449487 38.82356167 -11.95717279 42.125 -11.9375 C40.80930058 -2.90602156 39.22044026 6.04126785 37.43530273 14.9909668 C37.1703946 16.32947838 36.90572278 17.66803676 36.64126587 19.00663757 C35.93112245 22.59731432 35.2175134 26.18729365 34.5030582 29.77711463 C33.90536418 32.78210079 33.30948021 35.78744469 32.71360356 38.79279166 C31.30933985 45.87529219 29.90232143 52.95724139 28.4934082 60.03881836 C27.04029379 67.34275665 25.59132977 74.64750944 24.14444965 81.95268506 C22.89897405 88.24039855 21.65124939 94.52766268 20.40163761 100.81455547 C19.65650904 104.56337886 18.91217435 108.31235519 18.16988945 112.06174278 C17.47399171 115.57618579 16.77528063 119.09005772 16.07435989 122.60350227 C15.69452443 124.51106108 15.31755568 126.41919 14.94065857 128.32733154 C14.71499207 129.45561874 14.48932556 130.58390594 14.25682068 131.74638367 C14.06123282 132.73056621 13.86564497 133.71474874 13.66413021 134.728755 C13.125 137.0625 13.125 137.0625 12.125 139.0625 C3.215 139.0625 -5.695 139.0625 -14.875 139.0625 C-12.875 127.0625 -12.875 127.0625 -11.875 123.0625 C-12.45765625 123.49820313 -13.0403125 123.93390625 -13.640625 124.3828125 C-33.1402759 138.54765325 -54.27041037 142.8761508 -78.06640625 139.5546875 C-94.73546128 136.37091629 -110.00289106 127.4429283 -119.60180664 113.35351562 C-130.65755582 96.52355996 -131.79656736 76.10328836 -128.62109375 56.65625 C-123.83708343 33.61284949 -112.49460452 13.46416666 -92.65673828 0.19580078 C-65.85736907 -16.8503313 -25.95385098 -20.84088676 0 0 Z M-84.875 29.0625 C-85.43832031 29.60390625 -86.00164062 30.1453125 -86.58203125 30.703125 C-98.29078272 42.93707112 -101.38269611 59.78662532 -101.29711914 76.04760742 C-101.11457145 83.01733813 -100.31094721 88.88853236 -96.875 95.0625 C-96.4625 95.85527344 -96.05 96.64804687 -95.625 97.46484375 C-90.53273192 106.15931283 -82.15783544 111.54775551 -72.60546875 114.40234375 C-59.72075083 116.68246661 -45.93837717 116.40836977 -33.875 111.0625 C-33.07320312 110.711875 -32.27140625 110.36125 -31.4453125 110 C-16.66755238 102.636687 -7.17859881 89.3000842 -1.875 74.0625 C0.06449537 67.41201222 0.46144731 61.02661499 0.4375 54.125 C0.45361328 53.20009766 0.46972656 52.27519531 0.48632812 51.32226562 C0.4942442 40.0260199 -2.69605771 30.57504716 -10.5390625 22.30859375 C-18.51715157 15.04088247 -28.21198996 11.90590192 -38.875 11.0625 C-39.52855469 11.00835937 -40.18210937 10.95421875 -40.85546875 10.8984375 C-58.26672592 10.17977398 -72.85546381 16.89191039 -84.875 29.0625 Z " fill="#000000" transform="translate(1130.875,353.9375)"/>
<path d="M0 0 C1.01980453 0.00031723 1.01980453 0.00031723 2.06021118 0.00064087 C19.85312829 0.05573215 38.32806543 2.37104907 53 13.375 C52.42022443 16.85098164 51.53478895 19.66604698 49.93359375 22.80078125 C49.53076172 23.59677734 49.12792969 24.39277344 48.71289062 25.21289062 C48.29201172 26.02951172 47.87113281 26.84613281 47.4375 27.6875 C46.80038086 28.94143555 46.80038086 28.94143555 46.15039062 30.22070312 C45.1056521 32.27496426 44.05540238 34.32620292 43 36.375 C39.75459026 35.14027169 36.82143705 33.72095853 33.8125 32 C17.59285381 23.96173417 -5.27157059 21.96569903 -22.5546875 27.33203125 C-29.07276822 30.11210721 -35.05019409 33.70587361 -38 40.375 C-38.75280098 45.22462315 -38.49873048 49.11629926 -36.6875 53.6875 C-28.84201545 61.53298455 -16.64610426 63.12149492 -6.1875 65.375 C30.17781067 73.26774728 30.17781067 73.26774728 39 86.375 C44.45938767 95.58771669 44.35444021 106.59518973 42.3046875 116.85546875 C40.35546942 123.31737239 37.49460573 128.37013709 33 133.375 C32.48695312 133.97957031 31.97390625 134.58414063 31.4453125 135.20703125 C20.10347076 147.66135029 1.12865904 152.6621863 -15.18359375 153.54785156 C-29.3561177 154.02212894 -43.2153854 153.89177155 -57 150.375 C-58.01126953 150.11759033 -58.01126953 150.11759033 -59.04296875 149.85498047 C-82.20327737 143.77702893 -82.20327737 143.77702893 -87.28417969 136.54785156 C-88 134.375 -88 134.375 -87.28076172 132.19262695 C-86.83490723 131.42394287 -86.38905273 130.65525879 -85.9296875 129.86328125 C-85.445 129.02345703 -84.9603125 128.18363281 -84.4609375 127.31835938 C-83.93757813 126.45017578 -83.41421875 125.58199219 -82.875 124.6875 C-82.37484375 123.80771484 -81.8746875 122.92792969 -81.359375 122.02148438 C-77.60369014 115.64566858 -77.60369014 115.64566858 -75.02392578 114.48901367 C-71.92116001 114.31422578 -70.13039426 116.18554144 -67.6328125 117.83984375 C-48.89845617 128.76358565 -24.56360868 131.09486842 -3.68359375 126.4140625 C2.83651023 124.57488153 8.74691473 121.82613707 12.625 116.0625 C14.24401871 111.72058618 14.8979082 107.95352287 14 103.375 C10.91413862 97.12370976 6.31689521 95.64802094 0 93.375 C-4.21409344 92.16042001 -8.45936715 91.21437096 -12.75 90.3125 C-15.0523863 89.80084057 -17.35447226 89.28782769 -19.65625 88.7734375 C-20.75195312 88.53206055 -21.84765625 88.29068359 -22.9765625 88.04199219 C-38.56805592 84.60239593 -55.09170477 80.55052785 -64.33203125 66.32421875 C-69.35624201 56.61311174 -68.82999057 44.67616568 -66 34.375 C-61.6508647 22.4499516 -53.17344587 14.09865242 -42 8.375 C-39.36430506 7.18455358 -36.69908572 6.10058527 -34 5.0625 C-33.37222656 4.81991455 -32.74445313 4.5773291 -32.09765625 4.32739258 C-21.604723 0.53336035 -11.07909153 -0.01429385 0 0 Z " fill="#000000" transform="translate(1267,340.625)"/>
<path d="M0 0 C9.24 0 18.48 0 28 0 C26.87499125 11.25008748 26.87499125 11.25008748 25.8614502 16.3387146 C25.63433853 17.49100555 25.40722687 18.64329651 25.17323303 19.83050537 C24.92592941 21.05996887 24.67862579 22.28943237 24.42382812 23.55615234 C24.15889245 24.89094156 23.89437284 26.22581342 23.63023376 27.5607605 C22.91758214 31.15622455 22.19910063 34.75050048 21.47945213 38.34456968 C20.72522356 42.11631356 19.97627023 45.88910489 19.22668457 49.66177368 C17.96887098 55.98852184 16.70758953 62.31457016 15.44384766 68.64013672 C13.6619014 77.55959172 11.88660181 86.48036042 10.11244678 95.4013679 C8.88141594 101.59006017 7.64877846 107.7784326 6.4158535 113.96674776 C6.11737092 115.46495018 5.81893584 116.96316207 5.52054787 118.46138334 C4.67079186 122.72779979 3.82003686 126.99401447 2.96765327 131.25990677 C2.58672579 133.16736707 2.20673304 135.07501397 1.82676697 136.98266602 C1.5996553 138.11803802 1.37254364 139.25341003 1.1385498 140.42318726 C0.8432198 141.90254037 0.8432198 141.90254037 0.54192352 143.4117794 C0.07970573 145.61932634 -0.45298087 147.81192349 -1 150 C-10.24 150 -19.48 150 -29 150 C-27.87498556 137.62484116 -27.87498556 137.62484116 -26.8614502 132.53430176 C-26.63433853 131.37919098 -26.40722687 130.2240802 -26.17323303 129.03396606 C-25.8022776 127.19280716 -25.8022776 127.19280716 -25.42382812 125.31445312 C-25.15881381 123.97790937 -24.89429678 122.64126694 -24.63023376 121.30453491 C-23.91846727 117.70901684 -23.19969082 114.11493402 -22.47945213 110.52110481 C-21.72464463 106.74901383 -20.97605935 102.97568792 -20.22668457 99.20251465 C-18.96955778 92.8774082 -17.70816562 86.55316493 -16.44384766 80.22949219 C-14.82086219 72.11177046 -13.20503175 63.99264161 -11.59140778 55.8730545 C-10.20192805 48.88165526 -8.80914711 41.89091431 -7.4158535 34.90027428 C-6.96872429 32.65612095 -6.52205723 30.411876 -6.07545471 28.1676178 C-5.37476252 24.64759299 -4.67201232 21.12798501 -3.96765327 17.60869217 C-3.58608597 15.69998374 -3.20640129 13.79089925 -2.82676697 11.88180542 C-2.5996553 10.74925323 -2.37254364 9.61670105 -2.1385498 8.4498291 C-1.8432198 6.97104153 -1.8432198 6.97104153 -1.54192352 5.46237946 C-1 3 -1 3 0 0 Z " fill="#000000" transform="translate(219,342)"/>
</svg>
